<?xml version="1.0" encoding="utf-8"?>
<!-- Generator: Adobe Illustrator 16.0.0, SVG Export Plug-In . SVG Version: 6.00 Build 0)  -->
<!DOCTYPE svg PUBLIC "-//W3C//DTD SVG 1.1//EN" "http://www.w3.org/Graphics/SVG/1.1/DTD/svg11.dtd">
<svg version="1.1" id="Layer_1" xmlns="http://www.w3.org/2000/svg" xmlns:xlink="http://www.w3.org/1999/xlink" x="0px" y="0px"
	 width="400px" height="400px" viewBox="0 0 400 400" enable-background="new 0 0 400 400" xml:space="preserve">
<g>
	<defs>
		<rect id="SVGID_1_" x="-8.132" y="-6.36" width="411.132" height="409.36"/>
	</defs>
	<clipPath id="SVGID_2_">
		<use xlink:href="#SVGID_1_"  overflow="visible"/>
	</clipPath>
	<g opacity="0.7" clip-path="url(#SVGID_2_)">
		<g>
			<defs>
				<rect id="SVGID_3_" x="2.167" y="290.736" width="387.251" height="49.706"/>
			</defs>
			<clipPath id="SVGID_4_">
				<use xlink:href="#SVGID_3_"  overflow="visible"/>
			</clipPath>
			<path clip-path="url(#SVGID_4_)" fill="#038389" d="M389.418,315.589c0,13.727-86.689,24.854-193.625,24.854
				c-106.937,0-193.626-11.127-193.626-24.854s86.689-24.853,193.626-24.853C302.729,290.736,389.418,301.862,389.418,315.589"/>
		</g>
	</g>
	<path clip-path="url(#SVGID_2_)" fill="#FFFFFF" d="M82.402,303.492c0,0,3.213,9.953,3.392,12.441
		c0.178,2.489-11.068,2.666-12.139,1.956c-1.071-0.711-3.703-12.621-2.655-12.977C72.049,304.559,82.027,302.31,82.402,303.492"/>
	<path clip-path="url(#SVGID_2_)" fill="#006C9B" d="M72.049,304.559c0,0,3.927,3.732,7.14,2.666
		c3.213-1.066,5.177-2.666,5.177-2.666s-5.177-30.571-6.158-43.901c-0.982-13.331,2.064-39.79,1.16-44.785
		c-0.903-4.994-16.422,9.947-16.422,9.947S68.3,294.25,72.049,304.559"/>
	<path clip-path="url(#SVGID_2_)" fill="#FFFFFF" d="M63.837,305.803c0,0-4.463,7.109-5.534,7.643c-1.071,0.533-8.39-0.533-9.104,0
		s-1.606,4.978-1.25,5.688c0.357,0.71,11.781,1.955,14.995,2.132c3.213,0.178,10.354-0.532,12.317-1.777
		c0.357-0.889-1.786-12.441-2.499-13.686C72.049,304.559,64.373,303.492,63.837,305.803"/>
	<path clip-path="url(#SVGID_2_)" fill="#006C9B" d="M49.2,211.066c0,0,0.714,44.791,2.856,53.855
		c2.142,9.065,7.945,31.993,8.435,33.949c0,0-0.133,2.133,0,3.199c0.133,1.066,1.74,5.155,2.811,6.043
		c1.071,0.889,9.104,1.955,11.003-1.347c0,0-2.613-14.473-3.684-20.337c-1.071-5.866-5.891-46.391-4.463-59.366
		c0,0,9.818-6.398,12.496-8.531c2.678-2.133,2.321-6.932,2.321-7.466C80.974,210.533,49.2,211.066,49.2,211.066"/>
	<path clip-path="url(#SVGID_2_)" fill="#5C829A" d="M26.797,82.206c0,0-0.893-1.511-0.893-2.312c0-0.799,3.034-11.108,4.462-11.73
		c1.428-0.623,10.979,1.244,13.031,1.777s10.354,2.488,10.8,4.266S26.797,82.206,26.797,82.206"/>
	<path clip-path="url(#SVGID_2_)" fill="#FFE2C9" d="M54.026,72.794c0,0-1.339-4.784-2.945-5.28
		c-1.606-0.497-8.021,2.201-8.021,2.201S52.679,72.2,54.026,72.794"/>
	<path clip-path="url(#SVGID_2_)" fill="#FFE2C9" d="M55.188,87.893c0,0-3.935,1.955-6.256,1.955c-2.32,0-3.872-1.833-5.479-1.833
		s-0.802-2.667,0.805-2.312c1.606,0.356,4.585,1.062,5.656,0.559c1.071-0.502,4.105-9.745,3.927-11.522
		c-0.179-1.777-11.067-3.555-12.674-4.622c-1.607-1.066,0.178-2.666,0.178-2.666s5.891,1.778,7.498,1.956
		c1.606,0.177,5.534,0.177,6.962,1.955c1.427,1.777,2.856,10.842,2.856,10.842s13.834,11.198,15.485,14.22
		c1.651,3.021-4.239,5.411-4.239,5.411S56.534,87.005,55.188,87.893"/>
	<path clip-path="url(#SVGID_2_)" fill="#FFFFFF" d="M42.288,70.591c-8.45-1.944-10.85-1.982-11.386-1.005
		c-0.536,0.978-4.82,11.909-4.106,12.62c0.714,0.711,19.887,4.076,22.484,4.17c2.597,0.095,5.096-11.103,4.917-12.169
		S43.908,70.963,42.288,70.591"/>
	<path clip-path="url(#SVGID_2_)" fill="#5C829A" d="M41.878,72.179c-6.553-1.508-8.415-1.538-8.83-0.779
		c-0.416,0.758-3.738,9.235-3.184,9.787s12.844,2.272,14.858,2.345c2.014,0.073,3.952-8.611,3.813-9.438
		C48.398,73.268,43.134,72.468,41.878,72.179"/>
	<path clip-path="url(#SVGID_2_)" fill="#BEBEBE" d="M51.609,79.539c0,0.736-0.599,1.333-1.338,1.333
		c-0.74,0-1.339-0.597-1.339-1.333s0.599-1.333,1.339-1.333C51.01,78.206,51.609,78.803,51.609,79.539"/>
	<path clip-path="url(#SVGID_2_)" fill="#FFFFFF" d="M36.793,56.889c-0.2-0.652-1.198-0.402-1.147,0.252
		c0.119,1.538-0.153,3.078-0.004,4.606c0.063,0.653,1.093,0.733,1.181,0.055C37.03,60.195,37.277,58.464,36.793,56.889"/>
	<path clip-path="url(#SVGID_2_)" fill="#FFFFFF" d="M30.449,62.349c-0.374-1.2-0.629-2.445-1.285-3.533
		c-0.337-0.56-1.211-0.079-0.998,0.513c0.428,1.19,0.661,2.42,1.249,3.551C29.735,63.493,30.637,62.951,30.449,62.349"/>
	<path clip-path="url(#SVGID_2_)" fill="#FFFFFF" d="M26.366,65.827c-1.306-0.935-2.94-1.535-4.438-2.096
		c-0.71-0.266-1.139,0.649-0.506,1.044c1.358,0.849,2.886,1.668,4.423,2.138C26.437,67.095,26.857,66.178,26.366,65.827"/>
	<path clip-path="url(#SVGID_2_)" fill="#FFFFFF" d="M23.154,70.49c-0.689-0.167-1.421-0.187-2.124-0.29
		c-0.769-0.113-1.541-0.208-2.318-0.217c-0.699-0.009-0.658,1.002-0.054,1.156c1.343,0.342,3.055,0.816,4.441,0.531
		C23.748,71.536,23.841,70.657,23.154,70.49"/>
	<path clip-path="url(#SVGID_2_)" fill="#C39E05" d="M66.534,100.47c0,0,2.539-6.673,7.662-6.668c0,0,4.859,7.485,5.976,9.91
		c0,0-5.211,6.325-7.977,5.921C72.194,109.633,67.585,102.803,66.534,100.47"/>
	<path clip-path="url(#SVGID_2_)" fill="#E4BD00" d="M79.189,103.801c0,0,7.129,14.384,10.08,20.167
		c2.952,5.784,5.674,22.58,6.187,28.09c0.513,5.51-9.036,2.27-8.669,0c0.367-2.269-6.89-31.25-13.489-43.102
		C73.298,108.955,76.333,102.912,79.189,103.801"/>
	<path clip-path="url(#SVGID_2_)" fill="#FFE2C9" d="M82.849,138.823c0,0-1.606,5.992-1.339,6.924
		c0.268,0.934,7.486,2.685,7.76,1.876c0.273-0.809,0.942-5.208,1.478-6.674c0.536-1.467-1.538-6.154-2.911-6.476
		C86.463,134.15,82.849,138.823,82.849,138.823"/>
	<path clip-path="url(#SVGID_2_)" fill="#FFC800" d="M83.407,213.793c0,0-0.357-15.463,3.705-29.194
		c4.061-13.73,12.228-29.632,8.479-36.012c0,0-3.08-0.819-6.962,0c-3.882,0.819-10.978,0.502-10.978,0.502s-6.962,0.45-8.703,0.85
		c-1.74,0.4-13.12,9.465-20.082,10.665c-6.962,1.199-12.317-3.117-13.79-5.758s-8.167-2.351-8.435,0.104s2.008,9.253,10.309,13.519
		c8.301,4.267,21.823,1.2,21.823,1.2s-13.79,22.662-11.246,46.257C47.527,215.926,66.51,220.567,83.407,213.793"/>
	<path clip-path="url(#SVGID_2_)" fill="#C39E05" d="M74.994,149.183c0,0,1.071-3.732,1.606-3.999
		c0.536-0.267,12.318,1.333,15.798,0c0,0,0.401,2,0,3.599C92.399,148.783,88.249,152.382,74.994,149.183"/>
	<path clip-path="url(#SVGID_2_)" fill="#FFE2C9" d="M23.807,142.815c0,0,1.866-11.598,4.749-17.33c0,0-1.276-10.086,0-11.286
		c1.275-1.2,3.819-0.578,4.087-0.178c0,0,0.803-11.864,1.74-12.131c0.937-0.267,2.945,0.4,2.543,2.933
		c-0.401,2.533-0.163,9.331,0.052,9.864c0.216,0.533,4.099-11.064,5.169-11.331c1.071-0.267,2.946,0.933,2.41,2.266
		c-0.536,1.333-3.615,10.132-3.615,11.465s0.536,2.933,1.071,3.333c0.535,0.399,2.945-0.267,3.213,0.533
		c0.268,0.8-0.803,2.667-4.418,3.999c-3.615,1.333-6.273,2.133-6.273,2.133s-3.902,10.931-3.099,16.664
		C32.241,149.48,25.146,142.949,23.807,142.815"/>
	<path clip-path="url(#SVGID_2_)" fill="#C39E05" d="M30.5,156.279c-3.214,0.929-4.82,1.466-6.292,1.466
		c-1.473,0-3.08-13.464-2.946-15.464c0.134-2,9.104-0.533,10.577,0c1.473,0.534,2.678,9.065,4.017,11.331
		C35.856,153.612,33.735,155.345,30.5,156.279"/>
	<path clip-path="url(#SVGID_2_)" fill="#D89380" d="M76.762,134.806c0,0,0.282-4.644,3.11-5.911c2.827-1.267,4.522,0,4.522,0
		S79.646,135.489,76.762,134.806"/>
	<path clip-path="url(#SVGID_2_)" fill="#FFE2C9" d="M87.928,105.11c0,0-7.067,10.556-8.198,12.526c-1.131,1.97-1.979,0.422-2.403,0
		c-0.423-0.422-4.099,0.704-2.968,2.251c1.131,1.548,3.534,3.096,3.534,3.096s-1.837,2.956-2.12,3.659c0,0,6.926,0.422,9.046,0
		c0,0-3.822,7.741-10.674,6.755c0,0-1.622,4.223-1.198,4.927c0.424,0.703,9.47,2.251,11.449,0.985s4.806-6.615,8.057-11.681
		c3.251-5.067,6.926-4.504,6.079-9.852C97.681,112.429,92.027,101.732,87.928,105.11"/>
	<path clip-path="url(#SVGID_2_)" fill="#A9660C" d="M93.582,110.036c0,0-7.297,0.254-7.818-5.572
		c-0.521-5.827,2.164-11.598,4.708-11.739c2.544-0.141,10.375,3.661,5.089,7.741c0,0,7.208-2.956,11.025-1.689
		c3.816,1.267,8.198,5.348,1.413,7.741c0,0,13.004,5.207,9.471,13.089c0,0,5.512,1.97,4.806,4.503s-4.24,0-4.24,0
		s2.827,5.911,0.565,7.318c-2.261,1.408-2.544,0-2.544,0s0.848,5.609-5.088,8.364c-5.937,2.754-8.339,2.051-8.339,2.051
		s0.282,6.052-3.251,5.77c-3.533-0.281-5.654-5.91-5.654-5.91s0.282,2.111-2.686,1.83c-2.968-0.282-3.074-6.643-3.162-8.529
		s4.152-8.22,4.152-8.22s1.413-6.609,4.381-6.611C96.409,120.172,87.362,115.807,93.582,110.036"/>
	<path clip-path="url(#SVGID_2_)" fill="#FFE2C9" d="M89.624,120.172c1.411-0.435,5.088,5.345,3.675,8.582
		c-1.414,3.237-4.806,6.192-6.079,4.644c-1.271-1.548,0.283-2.815,1.697-4.785C90.331,126.643,87.787,120.738,89.624,120.172"/>
	<path clip-path="url(#SVGID_2_)" fill="#955508" d="M86.75,111.303c0,0,3.015,1.548,2.591,4.926c0,0-1.095-3.959-3.643-3.941
		L86.75,111.303z"/>
	<path clip-path="url(#SVGID_2_)" fill="#131416" d="M84.31,118.176c-0.348,0.782-1.035,1.237-1.535,1.016
		c-0.5-0.22-0.623-1.033-0.275-1.814c0.348-0.781,1.035-1.237,1.534-1.016C84.534,116.582,84.657,117.394,84.31,118.176"/>
	<path clip-path="url(#SVGID_2_)" fill="#2A3549" d="M199.773,229.275c0,0,1.155,77.871,1.482,80.456
		c0.326,2.585-5.232,4.38-6.211,0c-0.979-4.381-1.631-80.456-1.631-80.456H199.773z"/>
	<path clip-path="url(#SVGID_2_)" fill="#3C4D68" d="M137.861,260.194c0,0-1.298,45.371,0,46.748h5.539v-46.748
		C143.399,257.949,137.912,258.306,137.861,260.194"/>
	<path clip-path="url(#SVGID_2_)" fill="#3C4D68" d="M171.317,259.414c0,0,0.583,47.217,1.837,47.539c1.252,0.321,5.334,0,5.334,0
		s0.81-42.178,0-46.154S171.317,259.414,171.317,259.414"/>
	<path clip-path="url(#SVGID_2_)" fill="#3C4D68" d="M183.058,252.816l-2.049,8.569l-44.912-0.594l-0.175-11.042
		C135.922,249.75,171.576,249.337,183.058,252.816"/>
	<path clip-path="url(#SVGID_2_)" fill="#FFFFFF" d="M148.277,200.004c0,0-3.789,5.823-3.955,7.673
		C144.322,207.677,147.788,202.439,148.277,200.004"/>
	<path clip-path="url(#SVGID_2_)" fill="#192E3A" d="M178.642,298.354c0,0-3.919,6.305-4.551,8.154
		c-0.632,1.851,1.295,6.752,2.275,7.01c0.98,0.258,7.977,1.547,8.495,2.838c0.518,1.289,0,3.476,0,3.476s-8.464,0.896-13.042,0
		c-4.577-0.896-8.119-14.569-7.384-19.729c0,0,6.262-4.644,7.384-5.676C172.942,293.395,178.642,298.354,178.642,298.354"/>
	<path clip-path="url(#SVGID_2_)" fill="#ED3B2E" d="M179.519,240.154c0,0,38.249-4.55,41.099-2.486
		c2.85,2.064,3.887,6.449,1.295,10.062c-2.591,3.612-39.384,48.36-41.457,50.624c-2.073,2.264-9.654-1.348-10.787-4.443
		c0,0,34.106-41.021,35.402-44.375c0,0-31.82-0.104-35.402-4.661c-3.582-4.556-8.905-5.659-6.055-7.206
		C166.464,236.12,179.519,240.154,179.519,240.154"/>
	<path clip-path="url(#SVGID_2_)" fill="#192E3A" d="M206.107,313.26c0,0,1.555,6.191,2.851,7.223
		c1.296,1.033,12.438-1.547,13.474,0c1.036,1.549,0.966,6.967,0.966,6.967s-20.398,2.321-23.249,0c0,0-5.284,1.29-7.047-0.258
		c0,0,1.086-13.66,2.642-15.473C197.298,309.905,206.107,313.26,206.107,313.26"/>
	<path clip-path="url(#SVGID_2_)" fill="#F84834" d="M163.614,237.668c0,0,4.491,5.676,8.205,5.934
		c3.714,0.258,39.988-0.516,43.099,3.096c3.109,3.612-7.773,60.336-6.478,67.964c0,0-13.733,0.371-15.547,0
		c0,0,11.4-53.773,10.104-56.354c-1.295-2.581-52.189-5.178-55.039-8.015c-2.85-2.839-3.109-7.998-2.332-10.836
		C146.404,236.619,163.614,237.668,163.614,237.668"/>
	<path clip-path="url(#SVGID_2_)" fill="#4F4003" d="M155.413,163.832c0,0-4.73-5.521-5.545-8.607
		c-0.815-3.085-0.815-13.641-0.815-13.641s-1.958,0.004-2.446-0.972c-0.49-0.977,1.468-3.207,2.446-2.823
		c0,0-2.12-2.353-0.816-3.988c1.305-1.636,4.566,2.099,4.566,2.099s7.666-7.146,20.387-4.385c0,0,4.078-5.653,6.361-0.634
		c0,0,5.056-4.4,7.502,1.608c2.447,6.009-1.581,9.744-1.581,9.744s3.035,11.911-1.118,15.374
		C180.203,161.07,161.447,165.13,155.413,163.832"/>
	<path clip-path="url(#SVGID_2_)" fill="#FFE2C9" d="M159.49,151.85c0,0,4.077,23.674,4.729,24.811
		c0.653,1.136,8.318,5.684,14.352,4.709c6.035-0.974,7.176-3.085,6.851-10.23c-0.327-7.146-2.284-26.795-2.773-27.607
		c0,0-2.609,1.565-3.914,1.352c-1.305-0.214-11.091-0.273-12.232,0S159.49,151.85,159.49,151.85"/>
	<path clip-path="url(#SVGID_2_)" fill="#FFE2C9" d="M164.073,164.643c0,0-3.588-4.872-6.688-4.222
		c-3.098,0.649-2.773,6.009-1.794,7.795C156.57,170.002,163.91,174.225,164.073,164.643"/>
	<path clip-path="url(#SVGID_2_)" fill="#D2A580" d="M177.431,160.361c0,0-0.083,3.389,0.489,3.309
		c0.571-0.082,3.343-0.154,3.833,0.41c0.489,0.563,0.407,3.162,0,3.405c-0.408,0.244-2.944,0.731-4.326,0.488
		c0,0,3.836-0.731,3.918-1.137c0.082-0.406,0.082-2.672-0.326-2.635c-0.408,0.037-3.025,0.45-3.592,0
		C176.859,163.75,177.267,160.952,177.431,160.361"/>
	<path clip-path="url(#SVGID_2_)" fill="#7F4516" d="M169.927,171.301c0,0,6.688,2.436,11.825,0.568
		C181.752,171.87,174.74,175.442,169.927,171.301"/>
	<path clip-path="url(#SVGID_2_)" fill="#131416" d="M171.26,160.613c0.092,0.862-0.257,1.605-0.78,1.662
		c-0.524,0.055-1.023-0.598-1.117-1.46c-0.092-0.861,0.257-1.605,0.781-1.661C170.667,159.098,171.167,159.751,171.26,160.613"/>
	<path clip-path="url(#SVGID_2_)" fill="#131416" d="M182.075,159.049c0.092,0.862-0.257,1.605-0.78,1.662
		c-0.524,0.056-1.023-0.598-1.116-1.459c-0.093-0.862,0.256-1.606,0.78-1.662C181.482,157.534,181.981,158.188,182.075,159.049"/>
	<path clip-path="url(#SVGID_2_)" fill="#4F4003" d="M171.804,150.515c0.289-0.051-4.262-1.222-5.953,2.679
		C165.851,153.194,170.417,150.758,171.804,150.515"/>
	<path clip-path="url(#SVGID_2_)" fill="#4F4003" d="M177.593,149.378c-0.245,0,3.053-1.802,4.496,1.624
		C182.089,151.002,180.448,149.378,177.593,149.378"/>
	<path clip-path="url(#SVGID_2_)" fill="#FFE2C9" d="M179.819,201.249c0,0,4.788,14.168,6.989,18.458
		c2.201,4.29-5.464,3.975-5.464,3.975s-6.896-15.274-7.322-19.172C173.598,200.613,177.967,195.917,179.819,201.249"/>
	<path clip-path="url(#SVGID_2_)" fill="#506A91" d="M153.415,184.658c1.346,2.558,7.339,8.039,11.131,7.551
		c3.792-0.486,8.925-2.896,4.208-9.5c-1.729-0.439-3.579-0.856-5.391-1.204c-3.229-0.618-6.782-0.592-10.011-0.306
		C153.103,181.43,152.248,182.44,153.415,184.658"/>
	<path clip-path="url(#SVGID_2_)" fill="#40567A" d="M176.778,185.591c-0.573-0.684-3.958-1.847-8.025-2.881
		c4.717,6.603-0.416,9.012-4.208,9.499c-3.792,0.488-9.785-4.993-11.131-7.551c-1.167-2.216-0.312-3.228-0.063-3.458
		c-5.743,0.509-10.456,1.84-10.456,1.84c-1.63,1.167-9.546,19.089-8.848,19.927c1.386,1.665,10.274,4.709,10.274,4.709
		s-3.18,10.205-2.283,16.011c0.373,2.413,2.283,20.756,2.283,20.756c9.786-8.282,30.755-4.732,30.755-4.732
		s-4.196-9.142-4.742-12.551c-0.545-3.411,4.811-23.705,4.811-23.705s6.198,0.65,6.198-1.136
		C181.344,200.531,177.593,186.566,176.778,185.591"/>
	<path clip-path="url(#SVGID_2_)" fill="#FFE2C9" d="M171.232,178.447c0,0-3.04,3.41-4.047,5.521c0,0,3.721,4.385-1.661,5.521
		c-5.382,1.137-10.764-6.061-9.949-7.983c0,0,4.567-0.299,5.871-0.948c1.305-0.65,1.916-7.471,1.916-7.471
		S168.787,170.49,171.232,178.447"/>
	<path clip-path="url(#SVGID_2_)" fill="#FFE2C9" d="M143.109,207.247c0,0-3.19,9.687-2.7,10.985
		c0.488,1.299,19.245,2.76,22.18,2.599c2.936-0.163,2.446,4.709-0.653,5.357c-3.098,0.65-28.541,1.3-30.661-0.486
		c-2.121-1.786,2.839-20.512,3.492-22.136C137.933,205.05,138.848,205.398,143.109,207.247"/>
	<path clip-path="url(#SVGID_2_)" fill="#FFE2C9" d="M168.794,218.743c0,0,2.646-3.451,3.687-4.324
		c1.042-0.872,2.673-0.953,2.673-0.953s1.957,1.137,2.283,2.111c0.327,0.975,1.712,3.926,0,4.561
		c-1.712,0.636-3.903-2.693-3.903-2.693s-1.609,0.879-2.115,1.698C170.915,219.962,168.794,218.743,168.794,218.743"/>
	<path clip-path="url(#SVGID_2_)" fill="#FFE2C9" d="M161.825,222.335c0,0,7.926-3.391,10.06-2.628s4.648,1.15,5.994,1.259
		s2.284,1.561,2.533,1.369C180.661,222.145,164.486,224.937,161.825,222.335"/>
	<path clip-path="url(#SVGID_2_)" fill="#FFE2C9" d="M162.589,220.83c0.478,0.022,4.159-0.893,5.3-1.543
		c1.142-0.649,3.823-3.097,4.567-2.841c0.743,0.255,1.386,1.461,1.549,3.491c0.163,2.029-0.816,3.248-2.202,2.761
		c-1.387-0.487-1.142-2.111-1.142-2.111s-4.812,2.488-6.442,2.218C162.589,222.535,162.589,220.83,162.589,220.83"/>
	<path clip-path="url(#SVGID_2_)" fill="#CFD7E2" d="M156.962,226.86c0,0-0.163-1.889,0-2.457s1.876-1.949,1.876-1.949
		s22.506-0.894,25.85-1.056c0,0,9.215-27.119,10.683-28.581c0,0,31.313,1.218,37.185,2.436l-8.563,27.571v4.035
		c0,0-38.246,0.67-41.018,0H156.962z"/>
	<path clip-path="url(#SVGID_2_)" fill="#FFFFFF" d="M195.371,192.818c0,0,2.813,0.123,2.935,1.098
		c0.123,0.973-9.296,27.204-9.908,27.607c-0.611,0.404-3.71-0.124-3.71-0.124S194.025,194.401,195.371,192.818"/>
	<path clip-path="url(#SVGID_2_)" fill="#FFFFFF" d="M224.209,188.052c-0.228-0.966-0.382-2.014-0.927-2.866
		c-0.313-0.492-1.195-0.205-1.095,0.394c0.173,1.035,0.455,2.094,0.962,3.016C223.506,189.242,224.35,188.654,224.209,188.052"/>
	<path clip-path="url(#SVGID_2_)" fill="#FFFFFF" d="M230.965,185.254c-0.262,0.943-0.413,1.926-0.544,2.894
		c-0.102,0.758,1.023,0.971,1.177,0.215c0.196-0.957,0.422-1.928,0.485-2.905C232.129,184.735,231.163,184.542,230.965,185.254"/>
	<path clip-path="url(#SVGID_2_)" fill="#FFFFFF" d="M240.051,189.729c-0.468,0.207-0.849,0.588-1.262,0.886
		c-0.42,0.303-0.866,0.571-1.282,0.881c-0.573,0.428-0.113,1.307,0.568,1.096c0.496-0.154,0.961-0.436,1.387-0.73
		c0.488-0.339,1.09-0.746,1.35-1.294C241.028,190.11,240.561,189.504,240.051,189.729"/>
	<path clip-path="url(#SVGID_2_)" fill="#FFFFFF" d="M242.189,199.064c-0.639-0.58-1.804-1.013-2.67-0.864
		c-0.704,0.121-0.778,1.086-0.059,1.254c0.359,0.084,0.716,0.153,1.066,0.27c0.388,0.129,0.763,0.299,1.168,0.371
		C242.288,200.199,242.623,199.458,242.189,199.064"/>
	<path clip-path="url(#SVGID_2_)" fill="#2A3549" d="M247.887,231.424c0,0,1.155,88.059,1.481,90.981
		c0.326,2.924-5.232,4.953-6.212,0c-0.978-4.952-1.63-90.981-1.63-90.981H247.887z"/>
	<polygon clip-path="url(#SVGID_2_)" fill="#2A3549" points="118.88,228.138 152.816,226.184 152.816,236.664 118.88,236.664 	"/>
	<polygon clip-path="url(#SVGID_2_)" fill="#2A3549" points="252.616,226.185 152.816,226.185 152.816,236.664 252.616,234.309 	"/>
	<path clip-path="url(#SVGID_2_)" fill="#2A3549" d="M125.582,234.228c0,0-5.603,82.857-5.603,85.742c0,0-4.509,4.304-5.487,0
		c-0.979-4.303,4.58-85.742,4.58-85.742H125.582z"/>
	<path clip-path="url(#SVGID_2_)" fill="#2A3549" d="M152.816,236.664c0,0-5.712,87.284-5.147,89.232
		c0.567,1.949,5.06,3.024,5.891,1.076c0.831-1.95,5.93-90.816,5.93-90.816L152.816,236.664z"/>
	<path clip-path="url(#SVGID_2_)" fill="#864503" d="M303.513,136.759c0,0-2.398,6.438-6.561,9.726
		c-4.163,3.29-23.979,30.688,2.688,45.67c0,0-4.282-5.356-1.468-12.176c0,0,1.086,3.791,4.406,5.358c0,0-4.341-11.205-3.64-20.096
		c0.701-8.891,7.454-21.163,8.126-26.974C307.736,132.458,304.438,136.29,303.513,136.759"/>
	<path clip-path="url(#SVGID_2_)" fill="#FFC800" d="M303.513,130.094c0,0-1.036,5.552-0.927,7.135c0.11,1.583,1.7,3.49,3.648,3.045
		c1.949-0.445,2.701-6.577,3.068-8.039C309.669,130.774,304.695,128.928,303.513,130.094"/>
	<path clip-path="url(#SVGID_2_)" fill="#D2E4FF" d="M358.23,306.142c0,0,4.647,3.59,6.36,3.507
		c1.713-0.082,8.318-6.903,11.253-5.685c2.937,1.218,5.139,4.725,4.649,7.721c0,0-12.722,6.65-17.615,7.625
		c-4.893,0.975-10.029,1.462-11.009,0c-0.978-1.462-2.898-7.36-1.448-10.501C351.869,305.669,358.23,306.142,358.23,306.142"/>
	<path clip-path="url(#SVGID_2_)" fill="#D2E4FF" d="M281.413,303.818c0,0,1.224,11.269,3.181,12.406c0,0,8.563,1.52,9.785,4.007
		c1.224,2.488,0,4.66,0,4.66s-11.253,2.659-15.167,0c-3.915-2.659-11.393-12.968-11.813-15.243c-0.42-2.274,6.186-8.808,6.186-8.808
		L281.413,303.818z"/>
	<path clip-path="url(#SVGID_2_)" fill="#2F5F7C" d="M339.638,197.952c0,0,10.764,30.225,13.7,45.586
		c2.936,15.362,5.138,59.911,6.116,62.604c0,0-3.181,6.104-9.909,2.207c0,0-4.035-39.532-6.728-49.118
		c-2.69-9.587-16.583-37.432-18.784-40.538c0,0-8.614,29.246-12.284,38.503s-24.953,46.254-30.336,48.946
		c0,0-6.116,2.077-8.807-3.704c0,0,21.039-34.037,23.975-44.512c2.936-10.474,5.374-51.917,10.377-60.591
		C311.961,188.66,332.054,192.297,339.638,197.952"/>
	<path clip-path="url(#SVGID_2_)" fill="#FFE2C9" d="M375.437,164.625c0,0-0.318-5.512,0.497-8.435
		c0.815-2.922,3.456-3.398,5.739-1.45c0,0,7.104-7.527,8.736-7.675c1.631-0.149,2.316,0.674,0.686,2.473
		c-1.631,1.799-5.383,7.145-5.383,7.145s2.769-0.598,3.583,0.701c0.815,1.299,0.004,3.27,0.004,3.27s2.284,1.771,0.164,3.971
		c-2.12,2.201-7.829,5.536-8.807,5.167C379.678,169.423,375.437,164.625,375.437,164.625"/>
	<path clip-path="url(#SVGID_2_)" fill="#FF6955" d="M328.7,144.419c0,0,3.744,1.092,6.24,4.989
		c2.496,3.898,9.59,20.34,19.376,21.801c9.786,1.461,18.471-7.186,20.55-7.551s7.828,4.595,7.217,7.718
		c-0.612,3.122-19.205,11.77-28.134,11.282c-8.929-0.487-15.901-9.5-17.614-11.571C334.622,169.018,327.913,150.391,328.7,144.419"
		/>
	<path clip-path="url(#SVGID_2_)" fill="#EDB415" d="M296.854,173.97c0,0-7.707,19.974-20.749,27.444c0,0-3.87-0.325-4.785-1.624
		c0,0,13.437-5.918,20.123-20.737C298.131,164.236,296.854,173.97,296.854,173.97"/>
	<path clip-path="url(#SVGID_2_)" fill="#FF6955" d="M320.764,143.887c0,0,6.945-1.272,8.081,1.651
		c1.135,2.923,3.098,11.125,4.688,12.708c1.59,1.583,7.328,9.418,2.68,15.141c0,0,4.401,12.401,5.015,26.443
		c0,0-19.97,7.579-36.761-0.73c0,0,6.321-15.932,6.792-19.121c0.864-5.847-5.024-18.27-5.024-18.27s-9.454,16.638-16.381,21.314
		c-6.928,4.676-20.061,6.333-22.141-2.68c-2.078-9.012,6.851-6.69,6.851-6.69s8.439,1.218,12.477-1.713
		c4.036-2.931,12.232-22.775,15.045-25.333C304.898,144.05,317.293,143.979,320.764,143.887"/>
	<path clip-path="url(#SVGID_2_)" fill="#EDB415" d="M270.078,200.602c0,0-11.416,9.582-13.373,12.504
		c-1.958,2.923,15.983,15.914,18.592,15.589c2.61-0.324,16.166-13.895,15.917-15.589S273.401,200.029,270.078,200.602"/>
	<path clip-path="url(#SVGID_2_)" fill="#EDB415" d="M306.234,145.001c0,0,4.291,9.157,3.068,20.605
		c-1.224,11.449-12.232,38.368-19.327,44.76l1.958,2.739c0,0,30.285-43.403,16.243-68.105H306.234z"/>
	<path clip-path="url(#SVGID_2_)" fill="#FFD261" d="M292.364,212.472c0,0-4.04-3.101-8.679-6.349
		c-4.637-3.247-10.997-7.957-13.118-7.47c-2.12,0.487-7.025,5.177-7.019,6.892c0.006,1.715,8.161,10.16,11.26,10.483
		c0,0,7.887-2.288,12.721-2.922C292.364,212.472,291.326,214.053,292.364,212.472"/>
	<path clip-path="url(#SVGID_2_)" fill="#FFE2C9" d="M321.435,141.257c0,0,0.838,3.401,1.938,3.523c0,0,1.141,2.436-0.968,3.288
		c-2.109,0.853-7.383-2.773-7.211-3.405c0.174-0.633,0.673-2.748,0.388-4.056S319.624,138.953,321.435,141.257"/>
	<path clip-path="url(#SVGID_2_)" fill="#864503" d="M315.418,96.997c4.894-2.273,14.555,3.248,16.411,7.957
		c1.855,4.71,2.819,11.762-0.435,15.056c-3.255,3.294-23.737,13.924-23.737,13.924s-8.345-5.753-9.975-9.655
		c-1.632-3.902-2.488-12.342,1.264-19C302.696,98.621,310.036,95.86,315.418,96.997"/>
	<path clip-path="url(#SVGID_2_)" fill="#FFE2C9" d="M330.912,115.997c0,0,2.063,13.866,0,18.837
		c-3.099,7.47-12.589,6.82-16.775,5.357c-6.914-2.418-9.972-14.451-10.624-18.023c0,0,11.416-4.71,12.559-18.513
		C316.071,103.655,325.53,116.646,330.912,115.997"/>
	<path clip-path="url(#SVGID_2_)" fill="#D2A580" d="M320.801,116.809c0,0-0.326,4.222,0.978,5.034
		c1.306,0.813,3.594-1.61,4.323-0.568c0.729,1.042,0.651,2.355-0.979,3.004c0,0,3.741-0.815,1.42-3.735
		c-1.42-1.787-3.621,1.38-4.192,0.65C321.778,120.462,320.801,117.864,320.801,116.809"/>
	<path clip-path="url(#SVGID_2_)" fill="#E4AC99" d="M323.648,136.759c-0.658,0.55-1.389,0.917-2.195,0.998
		c-3.381,0.337-6.761-4.52-8.366-7.663C315.835,130.167,321.778,131.011,323.648,136.759"/>
	<path clip-path="url(#SVGID_2_)" fill="#7A4316" d="M312.157,127.526c0.489-0.325,16.309-1.137,16.309-1.137
		s-1.479,7.583-4.816,10.37c-1.871-5.749-7.813-6.592-10.563-6.665C312.369,128.689,312.006,127.626,312.157,127.526"/>
	<path clip-path="url(#SVGID_2_)" fill="#131416" d="M317.131,120.056c0,0-1.55-2.436-3.507-2.03s-3.099,1.949-2.854,3.248
		C310.771,121.274,312.972,117.377,317.131,120.056"/>
	<path clip-path="url(#SVGID_2_)" fill="#131416" d="M328.844,118.585c0,0-1.326-2.085-3.001-1.737
		c-1.676,0.348-2.652,1.667-2.443,2.78C323.399,119.627,325.284,116.291,328.844,118.585"/>
	<path clip-path="url(#SVGID_2_)" fill="#442405" d="M315.581,111.612c0,0-5.364,1.487-6.278,3.085
		C309.303,114.697,309.321,110.12,315.581,111.612"/>
	<path clip-path="url(#SVGID_2_)" fill="#442405" d="M322.513,111.5c0,0,3.595-2.72,5.953,2.223
		C328.466,113.723,325.49,111.313,322.513,111.5"/>
	<path clip-path="url(#SVGID_2_)" fill="#FFE2C9" d="M304.05,122.333c0,0-3.099-2.722-4.557-0.999
		c-1.458,1.724,0.183,6.261,2.278,6.987c2.096,0.726,3.384,1.633,4.29,0C306.966,126.688,304.05,122.333,304.05,122.333"/>
	<path clip-path="url(#SVGID_2_)" fill="#FFE2C9" d="M331.199,118.218c0,0,1.094-2.313,1.524-0.237
		c0.432,2.076,0.898,7.55-0.926,7.919C329.975,126.268,331.199,118.218,331.199,118.218"/>
	<path clip-path="url(#SVGID_2_)" fill="#4E5F83" d="M301.474,123.466c0.84-1.253,3.941,1.461,3.378,2.923
		c-0.564,1.462-2.442,1.924-3.378,0.487C300.251,124.999,300.984,124.197,301.474,123.466"/>
	<path clip-path="url(#SVGID_2_)" fill="#4E5F83" d="M332.974,119.627c0,0,1.159-0.424,1.282,1.646
		c0.122,2.071-2.299,2.436-2.299,2.436S330.835,120.66,332.974,119.627"/>
	<path clip-path="url(#SVGID_2_)" fill="#4E5F83" d="M302.586,127.526c0,0,2.279,15.306,17.709,21.396
		c0,0,0.017,17.903-3.164,28.621c-3.181,10.718-10.274,19-19.448,17.538c-9.175-1.461-14.557-9.865-14.557-9.865v-3.167h-1.713
		v3.045c0,0,4.648,10.475,16.024,12.058c11.375,1.583,18.103-7.308,21.896-19.122c3.791-11.813,3.18-28.865,3.18-28.865
		s16.547-8.151,11.454-26.668c0,0-1.248-1.026-0.907,0.825c0.34,1.85,3.397,16.221-11.158,24.138c0,0-12.86-3.572-18.051-19.933
		C303.851,127.526,302.721,124.887,302.586,127.526"/>
	<path clip-path="url(#SVGID_2_)" fill="#647FAD" d="M280.68,180.953c0.687-1.699-1.305-18.351-1.957-21.18
		c-0.407-1.763-1.699-2.504-2.616-2.813c1.245-0.162,2.168-0.251,2.452-0.203c0.979,0.162,2.121,0.675,2.854,3.017
		c0.734,2.342,3.426,21.585,1.713,22.275c-0.636,0.256-2.518,0.555-4.727,0.791C279.264,182.485,280.304,181.883,280.68,180.953"/>
	<path clip-path="url(#SVGID_2_)" fill="#4E5F83" d="M265.789,158.542c2.313-0.358,7.277-1.188,10.317-1.583
		c0.917,0.309,2.209,1.051,2.616,2.813c0.652,2.829,2.644,19.481,1.957,21.18c-0.376,0.93-1.416,1.532-2.28,1.887
		c-3.743,0.402-8.426,0.626-9.582,0.159C266.98,182.258,263.569,158.887,265.789,158.542"/>
	<path clip-path="url(#SVGID_2_)" fill="#FFFFFF" d="M266.677,160.914c0.061,0.704,0.684,1.225,1.391,1.164l2.071-0.179
		c0.707-0.062,1.229-0.681,1.169-1.384c-0.063-0.704-0.685-1.225-1.392-1.165l-2.071,0.179
		C267.139,159.59,266.615,160.21,266.677,160.914"/>
	<path clip-path="url(#SVGID_2_)" fill="#FFFFFF" d="M280.633,149.141c-0.04-0.597-0.971-0.813-1.199-0.219
		c-0.474,1.233-0.754,2.762-0.745,4.082c0.004,0.773,1.057,0.677,1.251,0.058C280.318,151.862,280.719,150.404,280.633,149.141"/>
	<path clip-path="url(#SVGID_2_)" fill="#FFFFFF" d="M271.998,148.652c-0.229-0.67-1.156-0.392-1.154,0.255
		c0.004,1.069,0.253,2.256,0.715,3.222c0.271,0.567,1.292,0.459,1.162-0.256C272.529,150.809,272.348,149.676,271.998,148.652"/>
	<path clip-path="url(#SVGID_2_)" fill="#FFFFFF" d="M266.796,153.971c-0.568-0.839-1.079-1.77-1.725-2.55
		c-0.404-0.489-1.312-0.12-1.041,0.534c0.426,1.026,1.124,2.001,1.875,2.814C266.381,155.286,267.167,154.52,266.796,153.971"/>
	<path clip-path="url(#SVGID_2_)" fill="#FFFFFF" d="M261.397,158.614c-0.688-0.485-1.388-1.007-2.195-1.275
		c-0.269-0.089-0.542-0.076-0.74,0.153c-0.207,0.239-0.207,0.673,0.066,0.871c0.682,0.495,1.383,1.011,2.187,1.29
		c0.271,0.094,0.551,0.074,0.75-0.156C261.673,159.257,261.678,158.811,261.397,158.614"/>
	<path clip-path="url(#SVGID_2_)" fill="#FFE2C9" d="M265.063,161.709c0,0-0.286,3.045,1.06,3.653
		c1.346,0.609,1.59,1.34,4.525,0.731c2.937-0.609,6.239,0.365,6.606,1.34c0.366,0.974-1.713,2.673-3.792,2.676
		c-2.08,0.003-4.771,0.369-4.771,1.221s2.018,1.096,4.251,0.73c2.232-0.365,5.413-0.442,6.024,1.24
		c0.611,1.684-1.468,2.414-3.425,2.658c-1.957,0.243-5.015,0.365-5.382,0.852s1.957,1.218,3.425,0.974s4.159,0,4.281,1.218
		c0.122,1.218-4.037,1.827-6.483,1.827s-4.281-0.852-5.26-1.827s-2.691-8.161-2.568-11.449
		C263.677,164.267,265.063,161.709,265.063,161.709"/>
</g>
</svg>
