<?xml version="1.0" encoding="utf-8"?>
<!-- Generator: Adobe Illustrator 16.0.0, SVG Export Plug-In . SVG Version: 6.00 Build 0)  -->
<!DOCTYPE svg PUBLIC "-//W3C//DTD SVG 1.1//EN" "http://www.w3.org/Graphics/SVG/1.1/DTD/svg11.dtd">
<svg version="1.1" id="Layer_1" xmlns="http://www.w3.org/2000/svg" xmlns:xlink="http://www.w3.org/1999/xlink" x="0px" y="0px"
	 width="50px" height="50px" viewBox="0 0 50 50" enable-background="new 0 0 50 50" xml:space="preserve">
<g>
	<path fill-rule="evenodd" clip-rule="evenodd" fill="#00103F" d="M32.221,24.377c1.017,3.051,4.801,7.667,2.094,11.861
		c-2.706,4.197-13.605,11.748-18.334,13.313c-4.729,1.566-8.791-1.626-10.04-3.913c-1.25-2.287-1.055-7.167,2.542-9.813
		c3.597-2.645,15.751-3.077,19.041-6.061c3.289-2.982-0.137-10.984,0.695-11.836C29.051,17.079,31.205,21.325,32.221,24.377
		L32.221,24.377z"/>
	<path fill-rule="evenodd" clip-rule="evenodd" fill="#00103F" d="M15.607,25.248c-0.937-3.079-4.598-7.799-1.783-11.917
		C16.638,9.213,27.729,1.974,32.496,0.541c4.769-1.433,8.747,1.873,9.937,4.194c1.188,2.323,0.867,7.194-2.799,9.737
		c-3.664,2.543-15.824,2.633-19.189,5.522c-3.366,2.889-0.149,10.984-1.004,11.813C18.587,32.634,16.543,28.327,15.607,25.248
		L15.607,25.248z"/>
</g>
</svg>
