<?xml version="1.0" encoding="utf-8"?>
<!-- Generator: Adobe Illustrator 16.0.0, SVG Export Plug-In . SVG Version: 6.00 Build 0)  -->
<!DOCTYPE svg PUBLIC "-//W3C//DTD SVG 1.1//EN" "http://www.w3.org/Graphics/SVG/1.1/DTD/svg11.dtd">
<svg version="1.1" id="Layer_1" xmlns="http://www.w3.org/2000/svg" xmlns:xlink="http://www.w3.org/1999/xlink" x="0px" y="0px"
	 width="150px" height="120px" viewBox="0 0 150 120" enable-background="new 0 0 150 120" xml:space="preserve">
<g>
	<g>
		<path fill="#3C3C3B" d="M33.501,18.16h0.598v-0.803c0-0.845,0.098-1.507,0.3-2.003c0.195-0.496,0.537-0.855,1.012-1.082
			c0.475-0.224,1.129-0.336,1.958-0.336c1.47,0,2.201,0.381,2.201,1.152c0,0.246-0.078,0.459-0.232,0.635
			c-0.15,0.173-0.331,0.266-0.539,0.266c-0.098,0-0.27-0.02-0.513-0.061c-0.229-0.035-0.44-0.06-0.604-0.06
			c-0.452,0-0.745,0.145-0.875,0.429c-0.127,0.284-0.192,0.693-0.192,1.224v0.639h0.615c0.959,0,1.436,0.31,1.436,0.926
			c0,0.433-0.125,0.71-0.382,0.83c-0.255,0.12-0.606,0.178-1.054,0.178h-0.615v7.103c0,0.528-0.115,0.933-0.356,1.209
			c-0.237,0.28-0.538,0.418-0.917,0.418c-0.354,0-0.65-0.138-0.889-0.418c-0.235-0.276-0.353-0.681-0.353-1.209v-7.103h-0.691
			c-0.375,0-0.664-0.085-0.866-0.27c-0.201-0.178-0.306-0.412-0.306-0.7C32.236,18.479,32.659,18.16,33.501,18.16z"/>
		<path fill="#3C3C3B" d="M41.73,24.957v2.239c0,0.542-0.125,0.952-0.363,1.22c-0.24,0.275-0.541,0.408-0.908,0.408
			c-0.369,0-0.667-0.134-0.896-0.414c-0.236-0.271-0.353-0.679-0.353-1.214v-7.469c0-1.204,0.408-1.806,1.224-1.806
			c0.42,0,0.719,0.142,0.907,0.423c0.183,0.285,0.284,0.697,0.304,1.252c0.3-0.556,0.605-0.968,0.921-1.252
			c0.319-0.281,0.738-0.423,1.267-0.423c0.533,0,1.042,0.142,1.539,0.423c0.495,0.285,0.748,0.656,0.748,1.12
			c0,0.328-0.107,0.602-0.319,0.813c-0.212,0.215-0.435,0.318-0.684,0.318c-0.095,0-0.318-0.059-0.669-0.184
			c-0.356-0.119-0.667-0.178-0.936-0.178c-0.367,0-0.669,0.106-0.9,0.308c-0.234,0.21-0.417,0.514-0.545,0.916
			c-0.129,0.409-0.219,0.893-0.266,1.453C41.752,23.47,41.73,24.151,41.73,24.957z"/>
		<path fill="#3C3C3B" d="M53.287,24.035h-4.92c0.006,0.603,0.121,1.146,0.345,1.608c0.223,0.464,0.521,0.814,0.894,1.053
			c0.376,0.232,0.782,0.352,1.23,0.352c0.302,0,0.575-0.037,0.823-0.118c0.25-0.07,0.492-0.188,0.724-0.351
			c0.234-0.157,0.446-0.329,0.645-0.514c0.195-0.185,0.451-0.434,0.766-0.747c0.131-0.115,0.313-0.176,0.551-0.176
			c0.258,0,0.466,0.074,0.628,0.225c0.162,0.156,0.239,0.365,0.239,0.638c0,0.246-0.087,0.526-0.263,0.85
			c-0.181,0.328-0.449,0.637-0.812,0.935c-0.357,0.295-0.812,0.549-1.354,0.74c-0.542,0.199-1.167,0.295-1.873,0.295
			c-1.616,0-2.87-0.486-3.763-1.471c-0.9-0.984-1.349-2.317-1.349-3.998c0-0.793,0.111-1.531,0.334-2.208
			c0.219-0.681,0.543-1.255,0.969-1.739c0.421-0.487,0.944-0.86,1.563-1.118c0.619-0.257,1.302-0.387,2.06-0.387
			c0.986,0,1.827,0.22,2.529,0.667c0.703,0.439,1.236,1.011,1.581,1.709c0.35,0.704,0.525,1.415,0.525,2.144
			c0,0.67-0.183,1.11-0.543,1.309C54.455,23.934,53.941,24.035,53.287,24.035z M48.367,22.509h4.559
			c-0.062-0.914-0.293-1.601-0.693-2.055c-0.402-0.455-0.932-0.682-1.59-0.682c-0.625,0-1.141,0.227-1.543,0.692
			C48.699,20.927,48.453,21.607,48.367,22.509z"/>
		<path fill="#3C3C3B" d="M63.742,24.035h-4.917c0.006,0.603,0.122,1.146,0.345,1.608c0.223,0.464,0.521,0.814,0.894,1.053
			c0.37,0.232,0.782,0.352,1.229,0.352c0.298,0,0.577-0.037,0.823-0.118c0.252-0.07,0.489-0.188,0.726-0.351
			c0.231-0.157,0.446-0.329,0.646-0.514c0.192-0.185,0.448-0.434,0.76-0.747c0.133-0.115,0.316-0.176,0.552-0.176
			c0.26,0,0.468,0.074,0.629,0.225c0.161,0.156,0.235,0.365,0.235,0.638c0,0.246-0.086,0.526-0.266,0.85
			c-0.175,0.328-0.442,0.637-0.807,0.935c-0.356,0.295-0.812,0.549-1.351,0.74c-0.543,0.199-1.17,0.295-1.877,0.295
			c-1.612,0-2.868-0.486-3.764-1.471c-0.898-0.984-1.348-2.317-1.348-3.998c0-0.793,0.111-1.531,0.335-2.208
			c0.222-0.681,0.542-1.255,0.965-1.739c0.424-0.487,0.945-0.86,1.566-1.118c0.622-0.257,1.309-0.387,2.064-0.387
			c0.979,0,1.823,0.22,2.532,0.667c0.701,0.439,1.229,1.011,1.575,1.709c0.347,0.704,0.523,1.415,0.523,2.144
			c0,0.67-0.18,1.11-0.54,1.309C64.907,23.934,64.395,24.035,63.742,24.035z M58.824,22.509h4.56
			c-0.06-0.914-0.297-1.601-0.696-2.055c-0.403-0.455-0.93-0.682-1.591-0.682c-0.627,0-1.138,0.227-1.542,0.692
			C59.152,20.927,58.909,21.607,58.824,22.509z"/>
		<path fill="#3C3C3B" d="M69.248,19.431v0.321c0.472-0.62,0.968-1.08,1.479-1.367c0.506-0.294,1.086-0.442,1.727-0.442
			c0.771,0,1.486,0.216,2.139,0.638c0.653,0.43,1.166,1.049,1.543,1.871c0.378,0.816,0.567,1.786,0.567,2.905
			c0,0.823-0.105,1.583-0.326,2.273c-0.216,0.692-0.516,1.27-0.896,1.74c-0.382,0.461-0.834,0.826-1.351,1.08
			c-0.522,0.249-1.078,0.375-1.677,0.375c-0.717,0-1.32-0.153-1.809-0.461c-0.488-0.303-0.953-0.762-1.396-1.353v4.027
			c0,1.173-0.404,1.767-1.204,1.767c-0.476,0-0.785-0.153-0.941-0.455c-0.149-0.309-0.228-0.75-0.228-1.335V19.445
			c0-0.511,0.104-0.888,0.309-1.146c0.212-0.248,0.499-0.378,0.86-0.378c0.356,0,0.648,0.131,0.868,0.388
			C69.138,18.571,69.248,18.94,69.248,19.431z M74.176,23.327c0-0.709-0.097-1.317-0.304-1.822c-0.199-0.509-0.481-0.896-0.84-1.167
			c-0.356-0.272-0.756-0.41-1.194-0.41c-0.694,0-1.28,0.292-1.754,0.872c-0.476,0.587-0.712,1.44-0.712,2.576
			c0,1.063,0.235,1.896,0.708,2.489c0.472,0.592,1.056,0.887,1.758,0.887c0.416,0,0.806-0.13,1.163-0.385
			c0.355-0.26,0.643-0.645,0.857-1.164C74.072,24.683,74.176,24.057,74.176,23.327z"/>
		<path fill="#3C3C3B" d="M79.235,16.675c-0.351,0-0.646-0.12-0.895-0.347c-0.252-0.23-0.376-0.548-0.376-0.965
			c0-0.381,0.127-0.696,0.38-0.941c0.256-0.243,0.552-0.369,0.891-0.369c0.325,0,0.614,0.113,0.867,0.33
			c0.25,0.224,0.379,0.551,0.379,0.98c0,0.408-0.125,0.732-0.369,0.965C79.864,16.555,79.575,16.675,79.235,16.675z M80.481,19.445
			v7.751c0,0.535-0.12,0.943-0.361,1.214c-0.239,0.28-0.543,0.414-0.915,0.414c-0.368,0-0.664-0.138-0.894-0.418
			c-0.23-0.288-0.347-0.688-0.347-1.209v-7.674c0-0.53,0.116-0.929,0.347-1.195c0.229-0.272,0.525-0.406,0.894-0.406
			c0.372,0,0.676,0.134,0.915,0.406C80.361,18.593,80.481,18.969,80.481,19.445z"/>
		<path fill="#3C3C3B" d="M88.585,27.601l-2.215-3.895l-1.366,1.374v2.136c0,0.515-0.131,0.913-0.387,1.189
			c-0.248,0.28-0.545,0.418-0.877,0.418c-0.387,0-0.691-0.134-0.908-0.414c-0.223-0.271-0.338-0.679-0.338-1.214V15.76
			c0-0.591,0.106-1.046,0.323-1.359c0.216-0.314,0.527-0.465,0.923-0.465c0.386,0,0.692,0.14,0.917,0.424
			c0.232,0.278,0.347,0.695,0.347,1.241v6.507l2.826-3.168c0.353-0.387,0.614-0.66,0.804-0.805c0.18-0.14,0.405-0.215,0.668-0.215
			c0.316,0,0.573,0.106,0.788,0.322c0.206,0.211,0.31,0.479,0.31,0.798c0,0.391-0.342,0.919-1.023,1.574l-1.333,1.304l2.582,4.323
			c0.183,0.324,0.325,0.56,0.406,0.727c0.086,0.167,0.125,0.334,0.125,0.479c0,0.429-0.106,0.76-0.327,1.01
			c-0.216,0.243-0.508,0.365-0.858,0.365c-0.312,0-0.545-0.081-0.713-0.265C89.093,28.379,88.866,28.06,88.585,27.601z"/>
		<path fill="#3C3C3B" d="M94.046,28.824c-0.379,0-0.708-0.132-0.982-0.396c-0.277-0.256-0.416-0.625-0.416-1.097
			c0-0.402,0.135-0.746,0.396-1.032c0.267-0.286,0.591-0.431,0.979-0.431c0.387,0,0.712,0.145,0.99,0.425
			c0.271,0.286,0.412,0.635,0.412,1.038c0,0.465-0.141,0.832-0.412,1.095C94.733,28.691,94.415,28.824,94.046,28.824z"/>
		<path fill="#3C3C3B" d="M106.55,25.505c0,0.33-0.095,0.69-0.283,1.071c-0.188,0.379-0.472,0.742-0.857,1.086
			c-0.385,0.341-0.863,0.621-1.45,0.828c-0.584,0.211-1.238,0.317-1.968,0.317c-1.558,0-2.769-0.484-3.646-1.448
			c-0.867-0.965-1.302-2.264-1.302-3.887c0-1.104,0.196-2.069,0.599-2.918c0.394-0.841,0.976-1.495,1.729-1.958
			c0.755-0.46,1.662-0.691,2.706-0.691c0.652,0,1.25,0.102,1.796,0.305c0.545,0.201,1.003,0.468,1.383,0.783
			c0.372,0.326,0.662,0.666,0.861,1.026c0.2,0.365,0.299,0.704,0.299,1.021c0,0.32-0.11,0.591-0.336,0.811
			c-0.227,0.227-0.495,0.338-0.813,0.338c-0.21,0-0.385-0.058-0.521-0.173c-0.142-0.115-0.296-0.3-0.466-0.56
			c-0.306-0.494-0.628-0.867-0.964-1.114c-0.335-0.251-0.76-0.375-1.276-0.375c-0.738,0-1.338,0.311-1.796,0.927
			c-0.456,0.619-0.682,1.468-0.682,2.538c0,0.506,0.061,0.972,0.178,1.392c0.112,0.42,0.28,0.782,0.504,1.079
			c0.226,0.299,0.488,0.522,0.801,0.678c0.317,0.158,0.659,0.233,1.031,0.233c0.509,0,0.937-0.125,1.297-0.373
			c0.365-0.248,0.682-0.629,0.955-1.143c0.152-0.297,0.318-0.53,0.492-0.701c0.182-0.171,0.401-0.26,0.657-0.26
			c0.312,0,0.562,0.127,0.764,0.375C106.449,24.96,106.55,25.227,106.55,25.505z"/>
		<path fill="#3C3C3B" d="M117.398,23.375c0,0.796-0.119,1.534-0.345,2.211c-0.241,0.674-0.576,1.252-1.021,1.733
			c-0.437,0.487-0.969,0.858-1.579,1.117c-0.62,0.254-1.308,0.387-2.075,0.387c-0.761,0-1.445-0.132-2.054-0.396
			c-0.604-0.256-1.136-0.634-1.575-1.116c-0.446-0.494-0.789-1.07-1.02-1.738c-0.225-0.663-0.343-1.396-0.343-2.199
			c0-0.813,0.121-1.556,0.351-2.233c0.232-0.676,0.567-1.25,1.008-1.725c0.434-0.48,0.962-0.847,1.579-1.109
			c0.621-0.257,1.309-0.388,2.054-0.388c0.764,0,1.455,0.131,2.075,0.396c0.621,0.259,1.148,0.635,1.595,1.115
			c0.442,0.487,0.775,1.063,1.008,1.729C117.281,21.832,117.398,22.567,117.398,23.375z M114.874,23.375
			c0-1.094-0.226-1.943-0.678-2.554c-0.448-0.613-1.055-0.917-1.818-0.917c-0.491,0-0.923,0.14-1.301,0.409
			c-0.374,0.271-0.66,0.67-0.863,1.203c-0.2,0.533-0.307,1.15-0.307,1.859c0,0.7,0.101,1.311,0.297,1.831
			c0.206,0.529,0.491,0.93,0.863,1.206c0.374,0.275,0.81,0.419,1.311,0.419c0.764,0,1.37-0.308,1.818-0.921
			C114.648,25.297,114.874,24.452,114.874,23.375z"/>
		<path fill="#3C3C3B" d="M126.989,23.575v3.56c0,0.566-0.121,0.982-0.361,1.271c-0.237,0.28-0.556,0.418-0.949,0.418
			c-0.381,0-0.693-0.138-0.92-0.418c-0.239-0.288-0.36-0.705-0.36-1.271v-4.269c0-0.677-0.022-1.201-0.062-1.576
			c-0.047-0.366-0.163-0.68-0.353-0.916c-0.187-0.239-0.492-0.36-0.901-0.36c-0.824,0-1.36,0.3-1.626,0.91
			c-0.26,0.596-0.393,1.46-0.393,2.589v3.622c0,0.559-0.119,0.978-0.355,1.264c-0.235,0.282-0.545,0.425-0.933,0.425
			c-0.383,0-0.693-0.143-0.933-0.425c-0.246-0.286-0.369-0.705-0.369-1.264v-7.671c0-0.502,0.109-0.888,0.33-1.147
			c0.22-0.265,0.505-0.396,0.861-0.396c0.344,0,0.628,0.127,0.863,0.37c0.227,0.248,0.343,0.582,0.343,1.018v0.252
			c0.439-0.551,0.904-0.962,1.402-1.223c0.497-0.265,1.044-0.396,1.655-0.396c0.633,0,1.177,0.136,1.633,0.402
			c0.453,0.27,0.828,0.674,1.124,1.216c0.422-0.547,0.876-0.955,1.362-1.223c0.487-0.265,1.019-0.396,1.609-0.396
			c0.688,0,1.284,0.148,1.78,0.431c0.498,0.292,0.866,0.707,1.11,1.238c0.216,0.489,0.324,1.248,0.324,2.293v5.231
			c0,0.566-0.122,0.982-0.358,1.271c-0.238,0.28-0.552,0.418-0.95,0.418c-0.379,0-0.694-0.143-0.935-0.425
			c-0.241-0.286-0.361-0.705-0.361-1.264v-4.511c0-0.575-0.024-1.035-0.071-1.381c-0.04-0.347-0.169-0.638-0.371-0.875
			c-0.203-0.233-0.514-0.354-0.922-0.354c-0.333,0-0.646,0.108-0.943,0.317c-0.297,0.207-0.53,0.491-0.698,0.841
			C127.08,21.62,126.989,22.424,126.989,23.575z"/>
		<g>
			<path fill-rule="evenodd" clip-rule="evenodd" fill="#3C3C3B" d="M16.089,29.764c0,0-1.373-0.235-2.711-1.797
				c-1.349-1.574-1.575-3.245-1.575-3.245s1.709,0.432,2.939,0.574c2.164,0.263,4.114,0.118,5.033,0.013
				c1.992-0.234,3.051-0.626,3.481-0.741c2.543-0.647,4.987-2.404,4.987-2.404s0.307,2.038-1.13,4.297
				c-0.559,0.882-1.676,1.897-2.959,2.594C19.754,31.054,16.089,29.764,16.089,29.764z"/>
			<path fill-rule="evenodd" clip-rule="evenodd" fill="#3C3C3B" d="M26.486,18.187c-0.476-0.611-2.05-3.491-5.237-3.904
				c-0.817-0.104-5.125,0.073-7.709,2.626c-0.258,0.257-1.57,1.487-2.008,3.775c-0.338,1.766,0.219,3.761,0.219,3.761
				s2.866,0.634,5.027,0.576c3.426-0.09,5.15-0.413,6.942-0.992c2.64-0.854,4.505-2.278,4.505-2.278S26.96,18.802,26.486,18.187z
				 M16.598,22.567c-1.45,0.103-2.696-1.062-2.787-2.602c-0.092-1.531,1.011-2.861,2.459-2.957c1.451-0.107,2.699,1.064,2.786,2.598
				C19.15,21.143,18.046,22.471,16.598,22.567z M24,20.584c-0.914,0.058-1.699-0.672-1.756-1.644
				c-0.055-0.962,0.639-1.796,1.551-1.86c0.909-0.063,1.698,0.677,1.752,1.638C25.605,19.688,24.908,20.522,24,20.584z"/>
			<path fill-rule="evenodd" clip-rule="evenodd" fill="#3C3C3B" d="M25.244,16.198l0.833-1.068c0,0,1.15,0.602,1.888,1.742
				c0.738,1.13,1.214,2.165,1.214,2.165l-1.372,0.893c0,0-0.427-1.092-1.065-1.97C26.106,17.087,25.244,16.198,25.244,16.198z"/>
			<path fill-rule="evenodd" clip-rule="evenodd" fill="#3C3C3B" d="M27.86,16.938c0.213-0.139,0.577-0.157,0.554-0.487
				c-0.014-0.32-0.218-0.96,0.377-1.176c0.605-0.219,0.266,0.188,0.058,0.471c-0.208,0.281-0.14,0.453-0.113,0.87
				c0.021,0.408-0.25,0.544-0.658,0.747C27.671,17.571,27.644,17.073,27.86,16.938z"/>
			<path fill-rule="evenodd" clip-rule="evenodd" fill="#3C3C3B" d="M12.584,17.59c0,0-0.961,1.195-1.208,2.273
				c-0.244,1.084-0.194,2.387-0.194,2.387l-1.428-0.525c0,0-0.081-1.495,0.566-2.707c0.726-1.339,1.649-1.946,1.649-1.946
				L12.584,17.59z"/>
			<path fill-rule="evenodd" clip-rule="evenodd" fill="#3C3C3B" d="M10.486,18.952c-0.232-0.165-0.255-0.549-0.437-0.804
				c-0.184-0.255-0.229-0.1-0.647-0.1c-0.42-0.004-0.431-0.21-0.552-0.318c-0.119-0.111-0.174,0.334-0.174,0.334
				s0.078,0.383,0.527,0.408c0.446,0.033,0.436-0.204,0.627,0.226c0.194,0.433,0.575,0.761,0.575,0.761S10.719,19.112,10.486,18.952
				z"/>
			<path fill-rule="evenodd" clip-rule="evenodd" fill="#3C3C3B" d="M18.06,13.281c2.341-0.625,3.807,0.097,3.807,0.097
				l-0.124,0.718c0,0-1.713-0.123-3.068,0.095c-1.355,0.206-1.973,0.662-1.973,0.662l-0.294-0.719
				C16.407,14.134,17.048,13.552,18.06,13.281z"/>
			<path fill-rule="evenodd" clip-rule="evenodd" fill="#3C3C3B" d="M18.762,12.257l0.329-0.132l0.436,1.248l-0.327,0.13
				L18.762,12.257z"/>
			<path fill-rule="evenodd" clip-rule="evenodd" fill="#3C3C3B" d="M29.075,14.568c0.332-0.019,0.612,0.248,0.634,0.602
				c0.022,0.351-0.229,0.651-0.56,0.672c-0.331,0.026-0.611-0.246-0.634-0.594C28.495,14.897,28.744,14.598,29.075,14.568z"/>
			<path fill-rule="evenodd" clip-rule="evenodd" fill="#3C3C3B" d="M8.512,16.981c0.333-0.019,0.618,0.246,0.638,0.595
				c0.018,0.352-0.231,0.649-0.562,0.673c-0.331,0.026-0.613-0.243-0.638-0.593C7.932,17.307,8.184,17.009,8.512,16.981z"/>
			<path fill-rule="evenodd" clip-rule="evenodd" fill="#3C3C3B" d="M19.049,10.667c0.524-0.035,0.979,0.385,1.011,0.946
				c0.034,0.556-0.369,1.037-0.894,1.074c-0.526,0.039-0.978-0.387-1.013-0.948C18.12,11.183,18.521,10.699,19.049,10.667z"/>
		</g>
	</g>
	<g>
		<g>
			<g>
				<g>
					<linearGradient id="SVGID_1_" gradientUnits="userSpaceOnUse" x1="8.8687" y1="53.0015" x2="8.8687" y2="64.812">
						<stop  offset="0" style="stop-color:#EECC69"/>
						<stop  offset="0.3132" style="stop-color:#DD9D32"/>
						<stop  offset="0.4044" style="stop-color:#D59531"/>
						<stop  offset="0.5483" style="stop-color:#BF7E30"/>
						<stop  offset="0.6209" style="stop-color:#B2702F"/>
						<stop  offset="0.6309" style="stop-color:#B4722F"/>
						<stop  offset="0.758" style="stop-color:#C98632"/>
						<stop  offset="0.8824" style="stop-color:#D69234"/>
						<stop  offset="1" style="stop-color:#DA9635"/>
					</linearGradient>
					<path fill="url(#SVGID_1_)" d="M11.528,64.812c-0.92-0.026-1.786-0.196-2.594-0.503c-0.812-0.305-1.517-0.716-2.112-1.237
						c-0.597-0.513-1.066-1.116-1.412-1.802c-0.348-0.684-0.519-1.423-0.519-2.206v-5.213c0-0.231,0.099-0.43,0.3-0.596
						c0.197-0.17,0.435-0.254,0.712-0.254c0.291,0,0.534,0.083,0.724,0.254c0.19,0.166,0.284,0.365,0.284,0.596v5.213
						c0,0.49,0.103,0.959,0.302,1.403c0.198,0.448,0.474,0.848,0.829,1.198c0.352,0.347,0.765,0.642,1.241,0.882
						c0.475,0.24,0.987,0.406,1.544,0.494v-9.19c0-0.231,0.099-0.43,0.296-0.596c0.196-0.17,0.444-0.254,0.736-0.254
						c0.281,0,0.512,0.083,0.704,0.254c0.19,0.166,0.284,0.365,0.284,0.596v10.107c0,0.236-0.094,0.438-0.284,0.604
						c-0.191,0.168-0.433,0.25-0.729,0.25H11.528z"/>
					<linearGradient id="SVGID_2_" gradientUnits="userSpaceOnUse" x1="18.4561" y1="53.0659" x2="18.4561" y2="64.812">
						<stop  offset="0" style="stop-color:#EECC69"/>
						<stop  offset="0.3132" style="stop-color:#DD9D32"/>
						<stop  offset="0.4044" style="stop-color:#D59531"/>
						<stop  offset="0.5483" style="stop-color:#BF7E30"/>
						<stop  offset="0.6209" style="stop-color:#B2702F"/>
						<stop  offset="0.6309" style="stop-color:#B4722F"/>
						<stop  offset="0.758" style="stop-color:#C98632"/>
						<stop  offset="0.8824" style="stop-color:#D69234"/>
						<stop  offset="1" style="stop-color:#DA9635"/>
					</linearGradient>
					<path fill="url(#SVGID_2_)" d="M18.469,53.066c0.552,0,1.073,0.093,1.566,0.273c0.495,0.183,0.919,0.425,1.286,0.729
						c0.361,0.312,0.646,0.673,0.868,1.087c0.214,0.418,0.32,0.855,0.32,1.323v0.415c0,0.467-0.106,0.905-0.32,1.324
						c-0.221,0.413-0.507,0.777-0.868,1.084c-0.367,0.304-0.791,0.549-1.286,0.732c-0.493,0.182-1.014,0.272-1.566,0.272h-2.047
						V61.4c0,0.465,0.196,0.868,0.596,1.203c0.396,0.339,0.874,0.505,1.425,0.505c0.449,0,0.851-0.111,1.2-0.327
						c0.357-0.223,0.603-0.513,0.745-0.88c0.084-0.231,0.247-0.401,0.493-0.514c0.241-0.106,0.5-0.125,0.773-0.052
						c0.259,0.072,0.458,0.21,0.598,0.414c0.138,0.205,0.164,0.416,0.078,0.633c-0.279,0.729-0.771,1.319-1.478,1.765
						c-0.71,0.444-1.513,0.664-2.409,0.664c-0.551,0-1.075-0.087-1.567-0.272c-0.494-0.183-0.919-0.426-1.287-0.734
						c-0.36-0.305-0.648-0.664-0.868-1.078c-0.214-0.42-0.318-0.861-0.318-1.326v-4.921c0-0.468,0.104-0.905,0.318-1.323
						c0.219-0.414,0.507-0.775,0.868-1.087c0.368-0.304,0.793-0.547,1.287-0.729C17.368,53.159,17.898,53.066,18.469,53.066z
						 M16.422,58.623h2.047c0.552,0,1.027-0.17,1.424-0.515c0.399-0.343,0.597-0.748,0.597-1.214v-0.415
						c0-0.468-0.197-0.865-0.597-1.203c-0.397-0.333-0.873-0.503-1.424-0.503c-0.57,0-1.054,0.17-1.451,0.503
						c-0.4,0.338-0.596,0.735-0.596,1.203V58.623z"/>
					<linearGradient id="SVGID_3_" gradientUnits="userSpaceOnUse" x1="28.0679" y1="52.9761" x2="28.0679" y2="64.812">
						<stop  offset="0" style="stop-color:#EECC69"/>
						<stop  offset="0.3132" style="stop-color:#DD9D32"/>
						<stop  offset="0.4044" style="stop-color:#D59531"/>
						<stop  offset="0.5483" style="stop-color:#BF7E30"/>
						<stop  offset="0.6209" style="stop-color:#B2702F"/>
						<stop  offset="0.6309" style="stop-color:#B4722F"/>
						<stop  offset="0.758" style="stop-color:#C98632"/>
						<stop  offset="0.8824" style="stop-color:#D69234"/>
						<stop  offset="1" style="stop-color:#DA9635"/>
					</linearGradient>
					<path fill="url(#SVGID_3_)" d="M30.053,56.37c0-0.118-0.013-0.204-0.029-0.265c-0.017-0.054-0.027-0.099-0.027-0.13
						c-0.067-0.277-0.24-0.54-0.517-0.785c-0.38-0.321-0.845-0.484-1.401-0.484c-0.567,0-1.034,0.163-1.398,0.484
						c-0.377,0.319-0.568,0.723-0.568,1.201v5.054c0,0.469,0.191,0.862,0.568,1.177c0.381,0.326,0.848,0.487,1.398,0.487
						c0.521,0,0.986-0.161,1.401-0.487c0.381-0.346,0.573-0.74,0.573-1.177c0-0.234,0.093-0.432,0.283-0.601
						c0.186-0.168,0.43-0.252,0.726-0.252c0.274,0,0.513,0.084,0.71,0.252c0.197,0.169,0.3,0.367,0.3,0.601
						c0,0.921-0.396,1.716-1.192,2.384c-0.777,0.658-1.712,0.983-2.801,0.983c-1.101,0-2.043-0.325-2.822-0.983
						c-0.794-0.668-1.193-1.463-1.193-2.384v-5.054c0-0.934,0.399-1.735,1.193-2.406c0.778-0.67,1.721-1.008,2.822-1.008
						c1.089,0,2.024,0.338,2.801,1.008c0.776,0.671,1.175,1.46,1.192,2.362v0.023c-0.017,0.234-0.118,0.427-0.31,0.59
						c-0.193,0.162-0.426,0.238-0.7,0.238c-0.278,0-0.514-0.077-0.716-0.238C30.151,56.797,30.053,56.604,30.053,56.37z"/>
					<linearGradient id="SVGID_4_" gradientUnits="userSpaceOnUse" x1="36.1646" y1="52.9761" x2="36.1646" y2="64.812">
						<stop  offset="0" style="stop-color:#EECC69"/>
						<stop  offset="0.3132" style="stop-color:#DD9D32"/>
						<stop  offset="0.4044" style="stop-color:#D59531"/>
						<stop  offset="0.5483" style="stop-color:#BF7E30"/>
						<stop  offset="0.6209" style="stop-color:#B2702F"/>
						<stop  offset="0.6309" style="stop-color:#B4722F"/>
						<stop  offset="0.758" style="stop-color:#C98632"/>
						<stop  offset="0.8824" style="stop-color:#D69234"/>
						<stop  offset="1" style="stop-color:#DA9635"/>
					</linearGradient>
					<path fill="url(#SVGID_4_)" d="M37.615,63.108c0.222,0.012,0.465,0.09,0.711,0.24c0.253,0.146,0.375,0.35,0.375,0.609
						c0,0.252-0.096,0.452-0.293,0.615c-0.198,0.159-0.438,0.238-0.715,0.238c-1.12,0-2.082-0.335-2.872-1.007
						c-0.799-0.669-1.192-1.472-1.192-2.404v-7.57c0-0.248,0.098-0.452,0.298-0.611c0.194-0.162,0.444-0.244,0.737-0.244
						c0.275,0,0.513,0.082,0.71,0.244c0.202,0.159,0.297,0.363,0.297,0.611v0.329h1.143c0.278,0,0.517,0.086,0.713,0.252
						c0.191,0.167,0.299,0.367,0.299,0.602c0,0.248-0.108,0.451-0.299,0.612c-0.196,0.163-0.436,0.24-0.713,0.24H35.67V61.4
						c0,0.436,0.202,0.839,0.597,1.203C36.633,62.911,37.081,63.076,37.615,63.108z"/>
					<linearGradient id="SVGID_5_" gradientUnits="userSpaceOnUse" x1="44.2222" y1="52.9761" x2="44.2222" y2="64.812">
						<stop  offset="0" style="stop-color:#EECC69"/>
						<stop  offset="0.3132" style="stop-color:#DD9D32"/>
						<stop  offset="0.4044" style="stop-color:#D59531"/>
						<stop  offset="0.5483" style="stop-color:#BF7E30"/>
						<stop  offset="0.6209" style="stop-color:#B2702F"/>
						<stop  offset="0.6309" style="stop-color:#B4722F"/>
						<stop  offset="0.758" style="stop-color:#C98632"/>
						<stop  offset="0.8824" style="stop-color:#D69234"/>
						<stop  offset="1" style="stop-color:#DA9635"/>
					</linearGradient>
					<path fill="url(#SVGID_5_)" d="M47.254,53.984c0.793,0.671,1.192,1.465,1.192,2.385v5.075c0,0.904-0.399,1.691-1.192,2.36
						c-0.777,0.672-1.717,1.007-2.824,1.007h-0.44c-1.091,0-2.022-0.335-2.8-1.007c-0.794-0.652-1.192-1.439-1.192-2.36V56.37
						c0-0.935,0.397-1.729,1.192-2.385c0.794-0.67,1.727-1.008,2.8-1.008h0.44C45.521,52.976,46.463,53.314,47.254,53.984z
						 M46.398,56.37c0-0.469-0.19-0.861-0.565-1.18c-0.384-0.309-0.852-0.459-1.403-0.459h-0.417c-0.532,0-1.01,0.15-1.422,0.459
						c-0.381,0.349-0.57,0.74-0.57,1.18v5.075c0,0.437,0.189,0.831,0.57,1.177c0.412,0.309,0.891,0.465,1.422,0.465h0.417
						c0.551,0,1.019-0.156,1.403-0.465c0.375-0.314,0.565-0.708,0.565-1.177V56.37z"/>
					<linearGradient id="SVGID_6_" gradientUnits="userSpaceOnUse" x1="52.5923" y1="52.9551" x2="52.5923" y2="64.812">
						<stop  offset="0" style="stop-color:#EECC69"/>
						<stop  offset="0.3132" style="stop-color:#DD9D32"/>
						<stop  offset="0.4044" style="stop-color:#D59531"/>
						<stop  offset="0.5483" style="stop-color:#BF7E30"/>
						<stop  offset="0.6209" style="stop-color:#B2702F"/>
						<stop  offset="0.6309" style="stop-color:#B4722F"/>
						<stop  offset="0.758" style="stop-color:#C98632"/>
						<stop  offset="0.8824" style="stop-color:#D69234"/>
						<stop  offset="1" style="stop-color:#DA9635"/>
					</linearGradient>
					<path fill="url(#SVGID_6_)" d="M50.079,56.37c0-0.949,0.392-1.751,1.168-2.405c0.774-0.673,1.721-1.009,2.846-1.009
						c0.28,0,0.516,0.086,0.711,0.251c0.201,0.17,0.301,0.37,0.301,0.6c0,0.279-0.127,0.49-0.376,0.628
						c-0.25,0.137-0.486,0.212-0.712,0.228c-0.535,0.027-0.987,0.198-1.345,0.507c-0.38,0.314-0.576,0.718-0.576,1.2v6.827
						c0,0.452-0.196,0.832-0.592,1.146c-0.397,0.313-0.872,0.47-1.426,0.47V56.37z"/>
				</g>
				<linearGradient id="SVGID_7_" gradientUnits="userSpaceOnUse" x1="102.5752" y1="52.9722" x2="102.5752" y2="67.2847">
					<stop  offset="0" style="stop-color:#919396"/>
					<stop  offset="0.2692" style="stop-color:#E3E3E3"/>
					<stop  offset="0.6044" style="stop-color:#919396"/>
					<stop  offset="0.8846" style="stop-color:#CFD1D0"/>
				</linearGradient>
				<path fill="url(#SVGID_7_)" d="M64.187,52.972h-0.445c-1.065,0-1.998,0.338-2.788,1.007c-0.796,0.655-1.191,1.446-1.191,2.38
					v5.072c0,0.914,0.396,1.702,1.191,2.354c0.772,0.673,1.705,1.01,2.788,1.01h0.445c1.103,0,2.046-0.337,2.82-1.01
					c0.792-0.665,1.188-1.451,1.188-2.354v-5.072c0-0.915-0.396-1.712-1.188-2.38C66.212,53.31,65.273,52.972,64.187,52.972z
					 M66.151,61.431c0,0.463-0.19,0.857-0.565,1.175c-0.382,0.311-0.849,0.458-1.399,0.458h-0.415c-0.533,0-1.012-0.147-1.422-0.458
					c-0.379-0.348-0.569-0.741-0.569-1.175v-5.072c0-0.436,0.19-0.831,0.569-1.179c0.411-0.307,0.889-0.462,1.422-0.462h0.415
					c0.55,0,1.017,0.155,1.399,0.462c0.375,0.321,0.565,0.716,0.565,1.179V61.431z M73.839,52.972c-1.089,0-2.031,0.338-2.821,1.007
					c-0.794,0.667-1.19,1.465-1.19,2.38v10.925c0.572,0,1.047-0.164,1.446-0.48c0.398-0.307,0.594-0.692,0.594-1.158v-0.852h1.972
					c1.104,0,2.044-0.337,2.817-1.01c0.797-0.665,1.189-1.451,1.189-2.354v-5.072c0-0.915-0.393-1.712-1.189-2.38
					C75.868,53.31,74.926,52.972,73.839,52.972z M75.801,61.431c0,0.447-0.177,0.845-0.541,1.175
					c-0.413,0.311-0.887,0.458-1.421,0.458h-1.972v-6.705c0-0.463,0.193-0.858,0.573-1.179c0.414-0.307,0.88-0.462,1.398-0.462
					c0.534,0,1.008,0.155,1.421,0.462c0.364,0.321,0.541,0.716,0.541,1.179V61.431z M86.181,54.066
					c-0.356-0.308-0.785-0.549-1.28-0.733c-0.491-0.182-1.016-0.275-1.563-0.275c-0.572,0-1.1,0.093-1.592,0.275
					c-0.496,0.185-0.921,0.426-1.284,0.733c-0.361,0.305-0.65,0.665-0.867,1.08c-0.216,0.416-0.321,0.856-0.321,1.324v4.915
					c0,0.467,0.105,0.907,0.321,1.319c0.217,0.416,0.506,0.778,0.867,1.08c0.363,0.31,0.788,0.551,1.284,0.734
					c0.492,0.182,1.008,0.275,1.565,0.275c0.895,0,1.699-0.221,2.402-0.667c0.711-0.444,1.203-1.029,1.477-1.762
					c0.091-0.22,0.062-0.428-0.081-0.63c-0.134-0.205-0.333-0.345-0.592-0.415c-0.273-0.076-0.533-0.055-0.771,0.056
					c-0.246,0.108-0.41,0.277-0.492,0.511c-0.14,0.362-0.388,0.65-0.739,0.875c-0.356,0.216-0.757,0.327-1.203,0.327
					c-0.558,0-1.029-0.168-1.422-0.506c-0.398-0.334-0.596-0.731-0.596-1.198v-1.096h2.044c0.548,0,1.072-0.087,1.563-0.272
					c0.495-0.18,0.924-0.424,1.28-0.732c0.362-0.302,0.651-0.664,0.868-1.079c0.215-0.416,0.322-0.854,0.322-1.323V56.47
					c0-0.468-0.107-0.908-0.322-1.324C86.832,54.73,86.543,54.371,86.181,54.066z M85.353,56.883c0,0.468-0.196,0.872-0.595,1.212
					c-0.396,0.343-0.873,0.516-1.421,0.516h-2.044V56.47c0-0.468,0.197-0.871,0.596-1.202c0.393-0.335,0.876-0.503,1.448-0.503
					c0.548,0,1.024,0.167,1.421,0.503c0.398,0.332,0.595,0.734,0.595,1.202V56.883z M92.905,52.972
					c-0.686,0-1.366,0.163-2.041,0.484c-0.189-0.321-0.499-0.484-0.931-0.484c-0.278,0-0.51,0.085-0.702,0.262
					c-0.204,0.176-0.308,0.369-0.308,0.589v10.97c0.574,0,1.043-0.158,1.423-0.48c0.409-0.338,0.624-0.723,0.624-1.158v-6.796
					c0-0.451,0.18-0.837,0.538-1.158c0.386-0.32,0.849-0.483,1.396-0.483c0.52,0,0.988,0.155,1.403,0.462
					c0.38,0.321,0.572,0.716,0.572,1.179v8.435c0.564,0,1.043-0.158,1.417-0.48c0.398-0.324,0.601-0.708,0.601-1.158v-6.796
					c0-0.934-0.392-1.725-1.17-2.38C94.935,53.31,93.996,52.972,92.905,52.972z M109.353,58.643
					c-0.385-0.33-0.838-0.588-1.357-0.775c-0.517-0.188-1.07-0.285-1.657-0.285h-0.283c-0.482,0-0.896-0.141-1.228-0.428
					c-0.341-0.28-0.507-0.629-0.507-1.038c0-0.393,0.165-0.732,0.492-1.014c0.331-0.287,0.736-0.428,1.212-0.428
					c0.469,0,0.868,0.139,1.197,0.416c0.188,0.161,0.422,0.242,0.711,0.242c0.284,0,0.52-0.082,0.715-0.242
					c0.187-0.159,0.277-0.361,0.277-0.6c0-0.241-0.091-0.44-0.277-0.601c-0.351-0.29-0.748-0.514-1.193-0.665
					c-0.452-0.151-0.924-0.229-1.43-0.229c-0.512,0-0.996,0.08-1.445,0.237c-0.45,0.163-0.843,0.381-1.173,0.667
					c-0.341,0.286-0.607,0.62-0.806,0.994c-0.203,0.38-0.299,0.786-0.299,1.222c0,0.437,0.096,0.848,0.299,1.226
					c0.198,0.378,0.465,0.708,0.806,0.99c0.33,0.287,0.723,0.512,1.173,0.679c0.449,0.17,0.934,0.253,1.445,0.253l0.289,0.019
					c0.634,0,1.178,0.188,1.619,0.559c0.436,0.373,0.658,0.82,0.658,1.342c0,0.524-0.223,0.978-0.658,1.352
					c-0.441,0.384-0.974,0.575-1.595,0.575c-0.516,0-0.979-0.135-1.381-0.396c-0.405-0.263-0.681-0.603-0.816-1.029
					c-0.067-0.229-0.227-0.405-0.464-0.523c-0.244-0.112-0.504-0.135-0.78-0.063c-0.256,0.073-0.459,0.207-0.595,0.405
					c-0.14,0.197-0.171,0.408-0.104,0.641c0.259,0.788,0.774,1.426,1.538,1.916c0.766,0.485,1.637,0.732,2.602,0.732
					c0.587,0,1.141-0.097,1.657-0.288c0.52-0.188,0.973-0.444,1.357-0.774c0.389-0.326,0.698-0.707,0.918-1.148
					c0.229-0.438,0.341-0.897,0.341-1.397c0-0.493-0.112-0.959-0.341-1.396C110.051,59.351,109.741,58.969,109.353,58.643z
					 M116.6,63.328c-0.253-0.146-0.488-0.227-0.708-0.239c-0.541-0.031-0.988-0.195-1.349-0.506
					c-0.396-0.363-0.593-0.762-0.593-1.198v-5.53h1.14c0.273,0,0.507-0.078,0.709-0.239c0.199-0.159,0.299-0.364,0.299-0.609
					c0-0.235-0.1-0.436-0.299-0.604c-0.202-0.166-0.436-0.25-0.709-0.25h-1.14v-0.329c0-0.248-0.1-0.451-0.299-0.611
					c-0.203-0.162-0.438-0.241-0.712-0.241c-0.296,0-0.541,0.079-0.736,0.241c-0.201,0.16-0.297,0.363-0.297,0.611v7.561
					c0,0.932,0.396,1.734,1.188,2.399c0.794,0.673,1.751,1.01,2.874,1.01c0.273,0,0.51-0.082,0.709-0.239
					c0.196-0.164,0.299-0.367,0.299-0.615C116.976,63.677,116.853,63.476,116.6,63.328z M122.69,52.972h-0.438
					c-1.062,0-1.998,0.338-2.793,1.007c-0.794,0.655-1.189,1.446-1.189,2.38v5.072c0,0.914,0.396,1.702,1.189,2.354
					c0.781,0.673,1.711,1.01,2.793,1.01h0.438c1.11,0,2.052-0.337,2.824-1.01c0.79-0.665,1.188-1.451,1.188-2.354v-5.072
					c0-0.915-0.398-1.712-1.188-2.38C124.725,53.31,123.781,52.972,122.69,52.972z M124.668,61.431c0,0.463-0.199,0.857-0.576,1.175
					c-0.381,0.311-0.843,0.458-1.401,0.458h-0.413c-0.527,0-1.006-0.147-1.425-0.458c-0.375-0.348-0.565-0.741-0.565-1.175v-5.072
					c0-0.436,0.19-0.831,0.565-1.179c0.419-0.307,0.897-0.462,1.425-0.462h0.413c0.559,0,1.021,0.155,1.401,0.462
					c0.377,0.321,0.576,0.716,0.576,1.179V61.431z M132.346,52.972c-1.104,0-2.041,0.338-2.82,1.007
					c-0.795,0.667-1.193,1.466-1.193,2.401v5.05c0,0.914,0.398,1.71,1.193,2.376c0.779,0.655,1.717,0.987,2.82,0.987
					c1.09,0,2.019-0.332,2.791-0.987c0.8-0.666,1.196-1.462,1.196-2.376c0-0.233-0.101-0.436-0.298-0.602
					c-0.198-0.171-0.433-0.253-0.714-0.253c-0.29,0-0.532,0.082-0.725,0.253c-0.189,0.166-0.283,0.368-0.283,0.602
					c0,0.434-0.187,0.827-0.566,1.175c-0.418,0.324-0.886,0.483-1.401,0.483c-0.557,0-1.018-0.159-1.396-0.483
					c-0.38-0.317-0.566-0.712-0.566-1.175v-5.05c0-0.48,0.187-0.879,0.566-1.201c0.362-0.319,0.824-0.48,1.396-0.48
					c0.551,0,1.015,0.162,1.401,0.48c0.27,0.246,0.444,0.508,0.512,0.783c0,0.034,0.012,0.076,0.03,0.132
					c0.015,0.059,0.024,0.147,0.024,0.265c0,0.232,0.1,0.428,0.297,0.591c0.201,0.159,0.435,0.24,0.711,0.24
					c0.281,0,0.509-0.082,0.7-0.24c0.188-0.163,0.291-0.359,0.312-0.591v-0.021c-0.021-0.903-0.417-1.691-1.196-2.359
					C134.364,53.31,133.436,52.972,132.346,52.972z M144.22,59.066c-0.241-0.216-0.505-0.399-0.8-0.546
					c0.622-0.608,0.937-1.33,0.937-2.162v-1.352c0-0.235-0.106-0.436-0.302-0.604c-0.199-0.166-0.433-0.25-0.709-0.25
					c-0.274,0-0.516,0.084-0.711,0.25c-0.203,0.168-0.297,0.37-0.297,0.604v1.352c0,0.465-0.198,0.866-0.598,1.202
					c-0.359,0.307-0.812,0.473-1.347,0.505h-0.488v-4.221c0-0.232-0.099-0.435-0.292-0.601c-0.188-0.164-0.423-0.248-0.726-0.248
					c-0.269,0-0.511,0.084-0.708,0.248c-0.195,0.166-0.292,0.369-0.292,0.601v10.949c0.554,0,1.023-0.158,1.417-0.48
					c0.396-0.324,0.601-0.701,0.601-1.141v-3.427h1.526c0.545,0.028,1.008,0.193,1.366,0.501c0.38,0.338,0.572,0.737,0.572,1.203
					v3.344c0.554,0,1.031-0.158,1.426-0.48c0.394-0.324,0.592-0.701,0.592-1.141V61.45C145.388,60.532,144.998,59.738,144.22,59.066
					z"/>
			</g>
		</g>
	</g>
</g>
</svg>
