<?xml version="1.0" encoding="utf-8"?>
<!-- Generator: Adobe Illustrator 19.0.0, SVG Export Plug-In . SVG Version: 6.00 Build 0)  -->
<svg version="1.1" id="Layer_1" xmlns="http://www.w3.org/2000/svg" xmlns:xlink="http://www.w3.org/1999/xlink" x="0px" y="0px"
	 viewBox="-280 372 50 50" style="enable-background:new -280 372 50 50;" xml:space="preserve">
<style type="text/css">
	.st0{fill:#FFFFFF;}
</style>
<g>
	<path class="st0" d="M-247.8,396.4c1,3.1,4.8,7.7,2.1,11.9c-2.7,4.2-13.6,11.7-18.3,13.3c-4.7,1.6-8.8-1.6-10-3.9
		c-1.3-2.3-1.1-7.2,2.5-9.8c3.6-2.6,15.8-3.1,19-6.1c3.3-3-0.1-11,0.7-11.8C-250.9,389.1-248.8,393.3-247.8,396.4L-247.8,396.4z"/>
	<path class="st0" d="M-264.4,397.2c-0.9-3.1-4.6-7.8-1.8-11.9c2.8-4.1,13.9-11.4,18.7-12.8c4.8-1.4,8.7,1.9,9.9,4.2
		c1.2,2.3,0.9,7.2-2.8,9.7c-3.7,2.5-15.8,2.6-19.2,5.5c-3.4,2.9-0.1,11-1,11.8C-261.4,404.6-263.5,400.3-264.4,397.2L-264.4,397.2z"
		/>
</g>
</svg>
